STARTFONT 2.1
FONT -Adobe-New Century Schoolbook-Medium-R-Normal--34-240-100-100-P-181-ISO8859-2
SIZE 24 100 100
FONTBOUNDINGBOX 38 39 -6 -7
COMMENT $XConsortium: ncenR24.bdf,v 1.7 95/01/26 17:57:20 gildea Exp $
COMMENT 
COMMENT +
COMMENT  Copyright 1984-1989, 1994 Adobe Systems Incorporated.
COMMENT  Copyright 1988, 1994 Digital Equipment Corporation.
COMMENT
COMMENT  Adobe is a trademark of Adobe Systems Incorporated which may be
COMMENT  registered in certain jurisdictions.
COMMENT  Permission to use these trademarks is hereby granted only in
COMMENT  association with the images described in this file.
COMMENT
COMMENT  Permission to use, copy, modify, distribute and sell this software
COMMENT  and its documentation for any purpose and without fee is hereby
COMMENT  granted, provided that the above copyright notices appear in all
COMMENT  copies and that both those copyright notices and this permission
COMMENT  notice appear in supporting documentation, and that the names of
COMMENT  Adobe Systems and Digital Equipment Corporation not be used in
COMMENT  advertising or publicity pertaining to distribution of the software
COMMENT  without specific, written prior permission.  Adobe Systems and
COMMENT  Digital Equipment Corporation make no representations about the
COMMENT  suitability of this software for any purpose.  It is provided "as
COMMENT  is" without express or implied warranty.
COMMENT -
COMMENT  
COMMENT  Translation to ISO8859-2 by Cub Soft;  Petr.Kolar@vslib.cz
COMMENT  
STARTPROPERTIES 28
FOUNDRY "Adobe"
FAMILY_NAME "New Century Schoolbook"
WEIGHT_NAME "Medium"
SLANT "R"
SETWIDTH_NAME "Normal"
ADD_STYLE_NAME ""
PIXEL_SIZE 34
POINT_SIZE 240
RESOLUTION_X 100
RESOLUTION_Y 100
SPACING "P"
AVERAGE_WIDTH 181
CHARSET_REGISTRY "ISO8859"
CHARSET_ENCODING "2"
CAP_HEIGHT 25
X_HEIGHT 16
FONT_ASCENT 29
FONT_DESCENT 7
FACE_NAME "New Century Schoolbook Roman"

STARTCHAR space
ENCODING 32
SWIDTH 278 0
DWIDTH 9 0
BBX 1 1 1 0
BITMAP
00
ENDCHAR
STARTCHAR exclam
ENCODING 33
SWIDTH 296 0
DWIDTH 10 0
BBX 4 25 3 0
BITMAP
60
f0
f0
f0
f0
f0
f0
60
60
60
60
60
60
60
60
60
60
60
00
00
00
60
f0
f0
60
ENDCHAR
STARTCHAR quotedbl
ENCODING 34
SWIDTH 389 0
DWIDTH 13 0
BBX 9 8 2 17
BITMAP
e380
e380
e380
e380
4100
4100
4100
4100
ENDCHAR
STARTCHAR numbersign
ENCODING 35
SWIDTH 556 0
DWIDTH 19 0
BBX 16 23 2 0
BITMAP
030c
030c
030c
071c
0618
0618
0618
7fff
7fff
0618
0e38
0c38
0c30
fffe
fffe
0c30
0c30
1c70
1c70
1860
1860
1860
1860
ENDCHAR
STARTCHAR dollar
ENCODING 36
SWIDTH 556 0
DWIDTH 18 0
BBX 14 31 2 -4
BITMAP
0200
0200
0200
0fc0
3ff0
7270
e238
c278
c278
c230
c200
e200
fa00
7f00
3fc0
1ff0
03f8
027c
023c
621c
f20c
f20c
e21c
c218
e278
7ff0
1fc0
0200
0200
0200
0200
ENDCHAR
STARTCHAR percent
ENCODING 37
SWIDTH 833 0
DWIDTH 27 0
BBX 24 25 1 -1
BITMAP
038020
0fc0e0
1ce3c0
387fc0
386180
706180
706300
f06300
e06600
e0c400
e0cc00
e1881c
73187e
3e10e3
0031c3
0063c3
006383
00c783
00c703
018706
018706
03070c
020398
0601f0
040000
ENDCHAR
STARTCHAR ampersand
ENCODING 38
SWIDTH 815 0
DWIDTH 27 0
BBX 22 25 2 0
BITMAP
01f800
07bc00
061c00
0e0e00
0e0e00
0e0e00
0e0c00
0e1c00
0f3800
0f7000
07e000
078000
0fc7fc
3bc1f0
71e0e0
71f0c0
e0f0c0
e0f980
e07d80
f03f04
f01e04
f80f0c
7e3ff8
3ff3f8
1fc1e0
ENDCHAR
STARTCHAR apostrophe
ENCODING 39
SWIDTH 204 0
DWIDTH 7 0
BBX 5 9 1 16
BITMAP
30
78
78
38
18
10
30
60
c0
ENDCHAR
STARTCHAR parenleft
ENCODING 40
SWIDTH 333 0
DWIDTH 11 0
BBX 8 29 2 -4
BITMAP
01
07
06
0c
18
30
30
30
60
60
60
60
e0
e0
e0
e0
e0
60
60
60
60
30
30
10
18
0c
06
07
03
ENDCHAR
STARTCHAR parenright
ENCODING 41
SWIDTH 333 0
DWIDTH 11 0
BBX 8 29 2 -4
BITMAP
c0
e0
60
30
18
08
0c
0c
06
06
06
06
07
07
07
07
07
06
06
06
06
0c
0c
1c
18
30
60
c0
c0
ENDCHAR
STARTCHAR asterisk
ENCODING 42
SWIDTH 500 0
DWIDTH 17 0
BBX 12 14 2 11
BITMAP
0600
0600
0600
c670
e670
7fe0
1f80
1f00
7fc0
e670
c670
0600
0600
0600
ENDCHAR
STARTCHAR plus
ENCODING 43
SWIDTH 606 0
DWIDTH 20 0
BBX 16 17 2 -1
BITMAP
0180
0180
0180
0180
0180
0180
0180
ffff
ffff
0180
0180
0180
0180
0180
0180
0180
0180
ENDCHAR
STARTCHAR comma
ENCODING 44
SWIDTH 278 0
DWIDTH 9 0
BBX 5 10 2 -6
BITMAP
70
f8
f8
78
18
18
30
60
e0
80
ENDCHAR
STARTCHAR minus
ENCODING 45
SWIDTH 606 0
DWIDTH 20 0
BBX 16 2 2 7
BITMAP
ffff
ffff
ENDCHAR
STARTCHAR period
ENCODING 46
SWIDTH 278 0
DWIDTH 9 0
BBX 4 4 2 0
BITMAP
60
f0
f0
60
ENDCHAR
STARTCHAR slash
ENCODING 47
SWIDTH 278 0
DWIDTH 9 0
BBX 10 25 -1 0
BITMAP
00c0
00c0
00c0
0180
0180
0180
0300
0300
0300
0600
0600
0600
0c00
0c00
0c00
1800
1800
1800
3000
3000
3000
6000
6000
6000
c000
ENDCHAR
STARTCHAR zero
ENCODING 48
SWIDTH 556 0
DWIDTH 18 0
BBX 16 24 2 0
BITMAP
03c0
0ff0
1c38
1818
381c
781e
700e
f00f
f00f
f00f
f00f
f00f
f00f
f00f
f00f
f00f
f00f
700e
781e
381c
1818
1c38
0ff0
03c0
ENDCHAR
STARTCHAR one
ENCODING 49
SWIDTH 556 0
DWIDTH 18 0
BBX 13 24 3 0
BITMAP
0300
0700
ff00
0700
0700
0700
0700
0700
0700
0700
0700
0700
0700
0700
0700
0700
0700
0700
0700
0700
0700
0700
0f80
fff8
ENDCHAR
STARTCHAR two
ENCODING 50
SWIDTH 556 0
DWIDTH 18 0
BBX 15 24 1 0
BITMAP
07e0
1ff8
381c
601e
700e
780e
780e
780e
301e
001c
001c
0038
0078
0070
00e0
01c0
0380
0702
0e02
1c06
3806
7ffe
fffe
fffe
ENDCHAR
STARTCHAR three
ENCODING 51
SWIDTH 556 0
DWIDTH 18 0
BBX 15 24 1 0
BITMAP
07e0
1ff8
3838
701c
781c
781c
301c
001c
0038
0070
01e0
0ff0
00f8
003c
001c
001e
600e
f00e
f00e
f01e
e01c
787c
3ff0
0fc0
ENDCHAR
STARTCHAR four
ENCODING 52
SWIDTH 556 0
DWIDTH 18 0
BBX 16 24 1 0
BITMAP
0030
0030
0070
00f0
01f0
01f0
0370
0670
0670
0c70
1870
1870
3070
6070
6070
c070
ffff
ffff
0070
0070
0070
0070
00f8
03fe
ENDCHAR
STARTCHAR five
ENCODING 53
SWIDTH 556 0
DWIDTH 18 0
BBX 14 24 2 0
BITMAP
3808
3ff8
3ff0
3fe0
3000
3000
2000
6000
63c0
6ff0
7c78
7038
603c
001c
001c
001c
601c
f01c
f01c
f03c
e038
7078
7ff0
1f80
ENDCHAR
STARTCHAR six
ENCODING 54
SWIDTH 556 0
DWIDTH 18 0
BBX 15 24 1 0
BITMAP
03f0
0ffc
1c3e
381e
381e
300c
7000
7000
7000
f1e0
f7f8
fe3c
fc1c
f81e
f00e
f00e
f00e
700e
700e
701e
381c
383c
1ff0
07c0
ENDCHAR
STARTCHAR seven
ENCODING 55
SWIDTH 556 0
DWIDTH 18 0
BBX 13 24 3 0
BITMAP
fff8
fff8
fff8
c010
c030
8020
8060
8040
00c0
00c0
0180
0180
0180
0300
0300
0300
0700
0700
0700
0f00
0f00
0f00
0f00
0600
ENDCHAR
STARTCHAR eight
ENCODING 56
SWIDTH 556 0
DWIDTH 18 0
BBX 15 24 1 0
BITMAP
07e0
1ff8
3c38
381c
701c
700c
700c
7818
3c38
3f70
1fe0
07f0
07f8
1dfc
387c
701e
701e
e00e
e00e
e00e
701c
783c
3ff8
0fe0
ENDCHAR
STARTCHAR nine
ENCODING 57
SWIDTH 556 0
DWIDTH 18 0
BBX 15 24 1 0
BITMAP
0fc0
3ff0
7878
7038
f03c
e01c
e01c
e01e
e01e
f01e
f03e
787e
787e
3fde
1f9e
001e
001c
001c
6038
f038
f070
f1e0
7fc0
3f00
ENDCHAR
STARTCHAR colon
ENCODING 58
SWIDTH 278 0
DWIDTH 9 0
BBX 4 16 3 0
BITMAP
60
f0
f0
60
00
00
00
00
00
00
00
00
60
f0
f0
60
ENDCHAR
STARTCHAR semicolon
ENCODING 59
SWIDTH 278 0
DWIDTH 9 0
BBX 5 21 1 -5
BITMAP
30
78
78
30
00
00
00
00
00
00
00
00
30
78
78
38
18
10
30
60
c0
ENDCHAR
STARTCHAR less
ENCODING 60
SWIDTH 606 0
DWIDTH 20 0
BBX 16 18 2 -1
BITMAP
0001
0007
001f
007c
01f0
07c0
1f00
7c00
f000
f000
7c00
1f00
07c0
01f0
007c
001f
0007
0001
ENDCHAR
STARTCHAR equal
ENCODING 61
SWIDTH 606 0
DWIDTH 20 0
BBX 16 8 2 4
BITMAP
ffff
ffff
0000
0000
0000
0000
ffff
ffff
ENDCHAR
STARTCHAR greater
ENCODING 62
SWIDTH 606 0
DWIDTH 20 0
BBX 16 18 2 -1
BITMAP
8000
e000
f800
3e00
0f80
03e0
00f8
003e
000f
000f
003e
00f8
03e0
0f80
3e00
f800
e000
8000
ENDCHAR
STARTCHAR question
ENCODING 63
SWIDTH 444 0
DWIDTH 14 0
BBX 12 25 1 0
BITMAP
3f80
73e0
c0e0
c0f0
e070
e070
e070
00f0
00f0
01e0
01c0
0380
0300
0600
0400
0400
0c00
0c00
0000
0000
0000
0c00
1e00
1e00
0c00
ENDCHAR
STARTCHAR at
ENCODING 64
SWIDTH 737 0
DWIDTH 25 0
BBX 22 25 1 0
BITMAP
00fe00
03ff80
0f87c0
1e00e0
1c0070
300038
300018
60fb98
61cf8c
e38f8c
c7878c
c7070c
cf070c
cf0f08
ce0f18
ce0e18
ce1e30
663e60
677ec0
33e798
380038
1c0070
0f81e0
07ff80
00fe00
ENDCHAR
STARTCHAR A
ENCODING 65
SWIDTH 722 0
DWIDTH 23 0
BBX 23 25 0 0
BITMAP
001000
003800
003800
007800
007c00
007c00
00dc00
00de00
019e00
018e00
018f00
030700
030780
030780
060380
07ffc0
07ffc0
0c01c0
0c01e0
0c01e0
1800f0
1800f0
3800f8
7c01fc
fe03fe
ENDCHAR
STARTCHAR B
ENCODING 66
SWIDTH 722 0
DWIDTH 23 0
BBX 20 25 1 0
BITMAP
fffe00
3fff80
0e07c0
0e01c0
0e01e0
0e01e0
0e01e0
0e01e0
0e01c0
0e01c0
0e0380
0fff00
0ffc00
0e0f80
0e03c0
0e01e0
0e00f0
0e00f0
0e00f0
0e00f0
0e00f0
0e01e0
0e03e0
3fffc0
ffff00
ENDCHAR
STARTCHAR C
ENCODING 67
SWIDTH 722 0
DWIDTH 22 0
BBX 20 25 1 0
BITMAP
01fc60
07ff60
0e03e0
1c01e0
3c00e0
3800e0
780060
780060
f00020
f00020
f00000
f00000
f00000
f00000
f00000
f00000
f00030
780030
780030
780060
3c0060
1c00c0
0f0380
07ff00
01fc00
ENDCHAR
STARTCHAR D
ENCODING 68
SWIDTH 778 0
DWIDTH 25 0
BBX 22 25 1 0
BITMAP
fffe00
3fffc0
0e03e0
0e00f0
0e0070
0e0078
0e0078
0e003c
0e003c
0e003c
0e003c
0e003c
0e003c
0e003c
0e003c
0e003c
0e003c
0e003c
0e0038
0e0078
0e0070
0e00e0
0e03e0
3fffc0
fffe00
ENDCHAR
STARTCHAR E
ENCODING 69
SWIDTH 722 0
DWIDTH 24 0
BBX 20 25 1 0
BITMAP
fffff0
3ffff0
0e01f0
0e0070
0e0070
0e0030
0e0430
0e0410
0e0410
0e0c00
0e3c00
0ffc00
0ffc00
0e3c00
0e0c00
0e0c00
0e0410
0e0410
0e0010
0e0030
0e0030
0e0070
0e01f0
3ffff0
fffff0
ENDCHAR
STARTCHAR F
ENCODING 70
SWIDTH 667 0
DWIDTH 22 0
BBX 20 25 1 0
BITMAP
fffff0
3ffff0
0e01f0
0e0070
0e0030
0e0030
0e0010
0e0410
0e0410
0e0c00
0e0c00
0e3c00
0ffc00
0ffc00
0e1c00
0e0c00
0e0400
0e0400
0e0400
0e0000
0e0000
0e0000
0e0000
3f8000
ffe000
ENDCHAR
STARTCHAR G
ENCODING 71
SWIDTH 778 0
DWIDTH 24 0
BBX 24 25 1 0
BITMAP
01fe30
07ffb0
0f03f0
1e00f0
3c0070
380070
780030
700030
700010
f00010
f00000
f00000
f00000
f00000
f007ff
f000f8
f00070
700070
700070
780070
3800f0
1c00f0
0f01b0
07ff30
01fe10
ENDCHAR
STARTCHAR H
ENCODING 72
SWIDTH 833 0
DWIDTH 27 0
BBX 25 25 1 0
BITMAP
ffe3ff80
3f80fe00
0e003800
0e003800
0e003800
0e003800
0e003800
0e003800
0e003800
0e003800
0e003800
0ffff800
0ffff800
0e003800
0e003800
0e003800
0e003800
0e003800
0e003800
0e003800
0e003800
0e003800
0e003800
3f80fe00
ffe3ff80
ENDCHAR
STARTCHAR I
ENCODING 73
SWIDTH 407 0
DWIDTH 13 0
BBX 11 25 1 0
BITMAP
ffe0
3f80
0e00
0e00
0e00
0e00
0e00
0e00
0e00
0e00
0e00
0e00
0e00
0e00
0e00
0e00
0e00
0e00
0e00
0e00
0e00
0e00
0e00
3f80
ffe0
ENDCHAR
STARTCHAR J
ENCODING 74
SWIDTH 556 0
DWIDTH 18 0
BBX 17 25 0 0
BITMAP
03ff80
007c00
003800
003800
003800
003800
003800
003800
003800
003800
003800
003800
003800
003800
003800
003800
703800
f83800
f83800
f83800
f03800
c07800
e07000
7ff000
1fc000
ENDCHAR
STARTCHAR K
ENCODING 75
SWIDTH 778 0
DWIDTH 25 0
BBX 25 25 1 0
BITMAP
ffe3ff00
3f81fc00
0e00f000
0e00e000
0e01c000
0e018000
0e030000
0e060000
0e0e0000
0e1c0000
0e380000
0e7c0000
0efe0000
0fde0000
0f8f0000
0f078000
0e07c000
0e03c000
0e01e000
0e01f000
0e00f000
0e007800
0e007c00
3f003e00
ffc0ff80
ENDCHAR
STARTCHAR L
ENCODING 76
SWIDTH 667 0
DWIDTH 22 0
BBX 20 25 1 0
BITMAP
ffe000
3f8000
0e0000
0e0000
0e0000
0e0000
0e0000
0e0000
0e0000
0e0000
0e0000
0e0000
0e0000
0e0000
0e0000
0e0000
0e0010
0e0010
0e0010
0e0030
0e0030
0e0070
0e01f0
3fffe0
ffffe0
ENDCHAR
STARTCHAR M
ENCODING 77
SWIDTH 944 0
DWIDTH 30 0
BBX 29 25 0 0
BITMAP
7f800ff8
1f800fc0
0f800f80
0fc00f80
0dc01b80
0dc01b80
0de01380
0ce03380
0ce03380
0cf02380
0c706380
0c706380
0c786380
0c38c380
0c38c380
0c3cc380
0c1c8380
0c1d8380
0c1f8380
0c1f0380
0c0f0380
0c0f0380
0c0e0380
3f060fe0
ffc63ff8
ENDCHAR
STARTCHAR N
ENCODING 78
SWIDTH 815 0
DWIDTH 28 0
BBX 26 25 1 0
BITMAP
ff00ffc0
1f003f00
0f800c00
0fc00c00
0fc00c00
0de00c00
0df00c00
0cf80c00
0c780c00
0c7c0c00
0c3e0c00
0c1e0c00
0c1f0c00
0c0f8c00
0c078c00
0c07cc00
0c03cc00
0c01ec00
0c00ec00
0c00fc00
0c007c00
0c003c00
0c003c00
3f001c00
ffc00c00
ENDCHAR
STARTCHAR O
ENCODING 79
SWIDTH 778 0
DWIDTH 24 0
BBX 22 25 1 0
BITMAP
01fe00
07ff80
0f03c0
1c00e0
3c00f0
380070
780078
700038
f0003c
f0003c
e0001c
e0001c
e0001c
e0001c
e0001c
f0003c
f00038
700038
780078
380070
3c00f0
1c00e0
0f03c0
07ff80
01fe00
ENDCHAR
STARTCHAR P
ENCODING 80
SWIDTH 667 0
DWIDTH 22 0
BBX 20 25 1 0
BITMAP
fffe00
3fff80
0e07c0
0e01e0
0e00f0
0e00f0
0e0070
0e0070
0e00f0
0e00f0
0e01e0
0e07c0
0fff80
0ffe00
0e0000
0e0000
0e0000
0e0000
0e0000
0e0000
0e0000
0e0000
0e0000
3f8000
ffe000
ENDCHAR
STARTCHAR Q
ENCODING 81
SWIDTH 778 0
DWIDTH 24 0
BBX 23 31 1 -6
BITMAP
00fe00
03ff80
0f01e0
1e00f0
3c0078
380038
78003c
70001c
f0001e
f0001e
e0000e
e0000e
e0000e
e0000e
f0001e
f0001e
707c1c
79de3c
798738
3d0370
1d0370
1f03e0
0f83c0
03ff80
00ffc0
0003c6
0001c6
0001e4
0001fc
0000f8
000070
ENDCHAR
STARTCHAR R
ENCODING 82
SWIDTH 722 0
DWIDTH 23 0
BBX 21 25 1 0
BITMAP
fffe00
3fff80
0e07c0
0e01c0
0e01e0
0e00e0
0e00e0
0e01e0
0e01e0
0e01c0
0e03c0
0e0f00
0ffc00
0ffe00
0e0f00
0e0700
0e0780
0e0380
0e0380
0e0388
0e0388
0e0388
0e03d8
3f81f0
ffe1e0
ENDCHAR
STARTCHAR S
ENCODING 83
SWIDTH 630 0
DWIDTH 20 0
BBX 17 25 2 0
BITMAP
0ff100
3ffb00
701f00
600700
e00700
e00300
e00100
f00100
f00000
7e0000
7fe000
1ffc00
07fe00
007f00
000f80
800780
800380
c00380
c00380
c00380
e00780
f00700
f80e00
dffc00
87f000
ENDCHAR
STARTCHAR T
ENCODING 84
SWIDTH 667 0
DWIDTH 21 0
BBX 19 25 1 0
BITMAP
ffffe0
ffffe0
f0e3e0
e0e0e0
c0e060
c0e060
80e020
80e020
80e020
00e000
00e000
00e000
00e000
00e000
00e000
00e000
00e000
00e000
00e000
00e000
00e000
00e000
00e000
03f800
0ffe00
ENDCHAR
STARTCHAR U
ENCODING 85
SWIDTH 815 0
DWIDTH 26 0
BBX 26 25 0 0
BITMAP
ffe0ffc0
3f803f00
0e000c00
0e000c00
0e000c00
0e000c00
0e000c00
0e000c00
0e000c00
0e000c00
0e000c00
0e000c00
0e000c00
0e000c00
0e000c00
0e000c00
0e000c00
0e000c00
0e000c00
0f001800
07001800
07803000
03e0f000
01ffc000
007f0000
ENDCHAR
STARTCHAR V
ENCODING 86
SWIDTH 722 0
DWIDTH 23 0
BBX 23 25 0 0
BITMAP
ffc3fe
3e00f8
1e0070
1e0070
0e0060
0f0060
0f0040
0700c0
0780c0
078080
038180
03c180
03c100
01c300
01e300
01e200
00e600
00f600
00f400
007c00
007c00
003800
003800
003800
001000
ENDCHAR
STARTCHAR W
ENCODING 87
SWIDTH 981 0
DWIDTH 31 0
BBX 31 25 0 0
BITMAP
ff1ff1fe
7e07c07c
3c038038
1c038030
1e03c030
1e03c060
0e03c060
0e03e060
0f03e060
0706e0c0
0706e0c0
0784f0c0
078c70c0
038c7180
038c7980
03c83980
01d83900
01f83f00
01f81f00
00f01f00
00f01e00
00f01e00
00e00e00
00600c00
00600c00
ENDCHAR
STARTCHAR X
ENCODING 88
SWIDTH 704 0
DWIDTH 22 0
BBX 23 25 0 0
BITMAP
ffc7fc
3f01f0
1f00e0
0f01c0
0f8180
078380
03c300
03e600
01ee00
00fc00
00f800
007800
007c00
007c00
00fe00
01df00
018f00
038780
030780
0603c0
0e03e0
0c01e0
1c00f0
3e00f8
ff87fe
ENDCHAR
STARTCHAR Y
ENCODING 89
SWIDTH 704 0
DWIDTH 23 0
BBX 23 25 0 0
BITMAP
ff83fe
7e00f8
3e0070
1e0060
0f00e0
0f00c0
078180
07c180
03c300
03e300
01e600
00f600
00fc00
007c00
007800
003800
003800
003800
003800
003800
003800
003800
003800
00fe00
03ff80
ENDCHAR
STARTCHAR Z
ENCODING 90
SWIDTH 611 0
DWIDTH 19 0
BBX 17 25 1 0
BITMAP
7fff80
7fff80
780f00
700f00
601e00
603e00
603c00
407c00
407800
00f000
00f000
01e000
03e000
03c000
078000
078080
0f0080
1f0080
1e0180
3e0180
3c0180
780380
780780
ffff80
ffff80
ENDCHAR
STARTCHAR bracketleft
ENCODING 91
SWIDTH 333 0
DWIDTH 11 0
BBX 7 29 3 -4
BITMAP
fe
c0
c0
c0
c0
c0
c0
c0
c0
c0
c0
c0
c0
c0
c0
c0
c0
c0
c0
c0
c0
c0
c0
c0
c0
c0
c0
c0
fe
ENDCHAR
STARTCHAR backslash
ENCODING 92
SWIDTH 606 0
DWIDTH 20 0
BBX 15 25 2 0
BITMAP
e000
7000
7000
3800
3800
1c00
1c00
0e00
0e00
0700
0700
0380
0380
0380
01c0
01c0
00e0
00e0
0070
0070
0038
0038
001c
001c
000e
ENDCHAR
STARTCHAR bracketright
ENCODING 93
SWIDTH 333 0
DWIDTH 11 0
BBX 7 29 1 -4
BITMAP
fe
06
06
06
06
06
06
06
06
06
06
06
06
06
06
06
06
06
06
06
06
06
06
06
06
06
06
06
fe
ENDCHAR
STARTCHAR asciicircum
ENCODING 94
SWIDTH 606 0
DWIDTH 20 0
BBX 16 13 2 12
BITMAP
03c0
03c0
07e0
07e0
0e70
0e70
1c38
1c38
381c
381c
700e
700e
e007
ENDCHAR
STARTCHAR underscore
ENCODING 95
SWIDTH 500 0
DWIDTH 16 0
BBX 16 2 0 -4
BITMAP
ffff
ffff
ENDCHAR
STARTCHAR grave
ENCODING 96
SWIDTH 333 0
DWIDTH 11 0
BBX 7 6 1 17
BITMAP
c0
e0
70
38
0c
06
ENDCHAR
STARTCHAR a
ENCODING 97
SWIDTH 556 0
DWIDTH 17 0
BBX 16 16 1 0
BITMAP
0fc0
3ff0
7878
7038
6038
0038
01f8
0ff8
3c38
7038
e038
e038
e078
f1fd
7f9f
3e0e
ENDCHAR
STARTCHAR b
ENCODING 98
SWIDTH 556 0
DWIDTH 17 0
BBX 15 25 0 0
BITMAP
1800
f800
3800
3800
3800
3800
3800
3800
3800
39e0
3bf8
3e1c
3c1c
3c0e
380e
380e
380e
380e
380e
380e
3c0e
3c1c
3e1c
37f8
21e0
ENDCHAR
STARTCHAR c
ENCODING 99
SWIDTH 444 0
DWIDTH 14 0
BBX 12 16 1 0
BITMAP
0780
1fe0
3870
70f0
70f0
e060
e000
e000
e000
e000
e000
7010
7030
3860
3fc0
0f80
ENDCHAR
STARTCHAR d
ENCODING 100
SWIDTH 574 0
DWIDTH 18 0
BBX 16 25 1 0
BITMAP
000c
007c
001c
001c
001c
001c
001c
001c
001c
079c
1fdc
387c
703c
703c
e01c
e01c
e01c
e01c
e01c
e01c
f03c
703c
787c
1fdc
079f
ENDCHAR
STARTCHAR e
ENCODING 101
SWIDTH 500 0
DWIDTH 16 0
BBX 14 16 1 0
BITMAP
07c0
1ff0
3878
7038
601c
e01c
e01c
fffc
e000
e000
e000
f004
700c
7838
3ff0
0fc0
ENDCHAR
STARTCHAR f
ENCODING 102
SWIDTH 333 0
DWIDTH 11 0
BBX 14 25 0 0
BITMAP
01f8
071c
0e1c
0c1c
1c08
1c00
1c00
1c00
1c00
ffc0
1c00
1c00
1c00
1c00
1c00
1c00
1c00
1c00
1c00
1c00
1c00
1c00
1c00
1c00
ffc0
ENDCHAR
STARTCHAR g
ENCODING 103
SWIDTH 537 0
DWIDTH 17 0
BBX 16 23 1 -7
BITMAP
079f
1ffb
3873
7038
7038
7038
7038
7038
3870
1fe0
3780
6000
6000
7fe0
7ff8
3ffc
303e
600e
e00e
e00e
f83c
7ff8
0fc0
ENDCHAR
STARTCHAR h
ENCODING 104
SWIDTH 611 0
DWIDTH 20 0
BBX 19 25 0 0
BITMAP
0c0000
fc0000
1c0000
1c0000
1c0000
1c0000
1c0000
1c0000
1c0000
1c7000
1dfc00
1f1e00
1e0e00
1c0700
1c0700
1c0700
1c0700
1c0700
1c0700
1c0700
1c0700
1c0700
1c0700
1c0700
ff3fe0
ENDCHAR
STARTCHAR i
ENCODING 105
SWIDTH 315 0
DWIDTH 10 0
BBX 9 24 1 0
BITMAP
1800
3c00
3c00
1800
0000
0000
0000
0000
1c00
fc00
1c00
1c00
1c00
1c00
1c00
1c00
1c00
1c00
1c00
1c00
1c00
1c00
1c00
ff80
ENDCHAR
STARTCHAR j
ENCODING 106
SWIDTH 296 0
DWIDTH 10 0
BBX 9 31 -2 -7
BITMAP
0300
0780
0780
0300
0000
0000
0000
0000
0380
1f80
0380
0380
0380
0380
0380
0380
0380
0380
0380
0380
0380
0380
0380
0380
0380
0380
4380
e300
e300
e600
7c00
ENDCHAR
STARTCHAR k
ENCODING 107
SWIDTH 593 0
DWIDTH 20 0
BBX 19 25 0 0
BITMAP
0c0000
fc0000
1c0000
1c0000
1c0000
1c0000
1c0000
1c0000
1c0000
1c7f80
1c1e00
1c1800
1c3000
1c6000
1cc000
1dc000
1fe000
1ef000
1c7800
1c3c00
1c1c00
1c0e00
1c0f00
1c0780
ff1fe0
ENDCHAR
STARTCHAR l
ENCODING 108
SWIDTH 315 0
DWIDTH 11 0
BBX 9 25 1 0
BITMAP
0c00
1c00
fc00
1c00
1c00
1c00
1c00
1c00
1c00
1c00
1c00
1c00
1c00
1c00
1c00
1c00
1c00
1c00
1c00
1c00
1c00
1c00
1c00
1c00
ff80
ENDCHAR
STARTCHAR m
ENCODING 109
SWIDTH 889 0
DWIDTH 27 0
BBX 27 16 0 0
BITMAP
1cf07800
fdfcfe00
1f1d8e00
1e0f0700
1e0f0700
1c0e0700
1c0e0700
1c0e0700
1c0e0700
1c0e0700
1c0e0700
1c0e0700
1c0e0700
1c0e0700
1c0e0700
ff3f9fe0
ENDCHAR
STARTCHAR n
ENCODING 110
SWIDTH 611 0
DWIDTH 19 0
BBX 19 16 0 0
BITMAP
1c7800
fdfe00
1f8e00
1e0700
1e0700
1c0700
1c0700
1c0700
1c0700
1c0700
1c0700
1c0700
1c0700
1c0700
1c0700
ff1fe0
ENDCHAR
STARTCHAR o
ENCODING 111
SWIDTH 500 0
DWIDTH 16 0
BBX 14 16 1 0
BITMAP
0780
1fe0
3870
7038
7038
e01c
e01c
e01c
e01c
e01c
e01c
7038
7038
3870
1fe0
0780
ENDCHAR
STARTCHAR p
ENCODING 112
SWIDTH 574 0
DWIDTH 19 0
BBX 16 23 1 -7
BITMAP
19f0
fbfc
3e1e
3c0e
3c07
3807
3807
3807
3807
3807
3807
3c0e
3c0e
3e1c
3bfc
39f0
3800
3800
3800
3800
3800
7c00
ff00
ENDCHAR
STARTCHAR q
ENCODING 113
SWIDTH 556 0
DWIDTH 17 0
BBX 16 23 1 -7
BITMAP
07c4
1fec
383c
703c
701c
e01c
e01c
e01c
e01c
e01c
e01c
f03c
703c
387c
3fdc
0f9c
001c
001c
001c
001c
001c
003e
00ff
ENDCHAR
STARTCHAR r
ENCODING 114
SWIDTH 444 0
DWIDTH 15 0
BBX 14 16 0 0
BITMAP
1c78
fdfc
1f3c
1e3c
1e18
1c00
1c00
1c00
1c00
1c00
1c00
1c00
1c00
1c00
1c00
ff80
ENDCHAR
STARTCHAR s
ENCODING 115
SWIDTH 463 0
DWIDTH 15 0
BBX 11 16 2 0
BITMAP
1ec0
7fc0
e1c0
c0c0
c0c0
f040
fe00
7f80
3fc0
07e0
80e0
c060
c060
e0e0
ffc0
9f00
ENDCHAR
STARTCHAR t
ENCODING 116
SWIDTH 389 0
DWIDTH 13 0
BBX 12 23 0 0
BITMAP
0400
0400
0c00
0c00
1c00
1c00
3c00
ffe0
1c00
1c00
1c00
1c00
1c00
1c00
1c00
1c00
1c10
1c10
1c30
1c30
1e60
0fe0
07c0
ENDCHAR
STARTCHAR u
ENCODING 117
SWIDTH 611 0
DWIDTH 20 0
BBX 18 16 0 0
BITMAP
1c0700
fc3f00
1c0700
1c0700
1c0700
1c0700
1c0700
1c0700
1c0700
1c0700
1c0700
1c0f00
1c0f00
1e3f00
0ff7c0
07c700
ENDCHAR
STARTCHAR v
ENCODING 118
SWIDTH 537 0
DWIDTH 17 0
BBX 17 16 0 0
BITMAP
ff1f80
7c0700
3c0600
1e0600
1e0c00
0e0c00
0f0800
071800
071800
07b000
03b000
03e000
01e000
01e000
00c000
00c000
ENDCHAR
STARTCHAR w
ENCODING 119
SWIDTH 778 0
DWIDTH 24 0
BBX 24 16 0 0
BITMAP
fe7f3f
783c0e
381c0c
3c1c1c
1c1e18
1c1e18
0e3610
0e2730
0f6730
076760
074360
03c3c0
03c3c0
0381c0
018180
018180
ENDCHAR
STARTCHAR x
ENCODING 120
SWIDTH 537 0
DWIDTH 19 0
BBX 16 16 1 0
BITMAP
ff7f
3c1c
1e18
0e30
0f30
0760
03c0
03c0
01e0
03e0
0670
0c78
1c38
383c
781e
fe7f
ENDCHAR
STARTCHAR y
ENCODING 121
SWIDTH 537 0
DWIDTH 20 0
BBX 18 23 1 -7
BITMAP
ff1fc0
3c0700
3c0600
1c0600
1e0c00
0e0c00
0f0800
071800
071800
07b000
03b000
03e000
01e000
01e000
00c000
00c000
018000
018000
630000
f30000
e60000
fc0000
700000
ENDCHAR
STARTCHAR z
ENCODING 122
SWIDTH 481 0
DWIDTH 15 0
BBX 13 16 1 0
BITMAP
7ff8
7878
60f0
60e0
41e0
43c0
0380
0780
0f00
0e00
1e08
3c08
3818
7838
f0f8
fff8
ENDCHAR
STARTCHAR braceleft
ENCODING 123
SWIDTH 333 0
DWIDTH 11 0
BBX 6 30 3 -4
BITMAP
0c
1c
38
30
30
30
30
30
30
30
30
30
30
70
e0
e0
70
30
30
30
30
30
30
30
30
30
30
38
1c
0c
ENDCHAR
STARTCHAR bar
ENCODING 124
SWIDTH 606 0
DWIDTH 20 0
BBX 2 25 9 0
BITMAP
c0
c0
c0
c0
c0
c0
c0
c0
c0
c0
c0
c0
c0
c0
c0
c0
c0
c0
c0
c0
c0
c0
c0
c0
c0
ENDCHAR
STARTCHAR braceright
ENCODING 125
SWIDTH 333 0
DWIDTH 11 0
BBX 6 30 2 -4
BITMAP
c0
e0
70
30
30
30
30
30
30
30
30
30
30
38
1c
1c
38
30
30
30
30
30
30
30
30
30
30
70
e0
c0
ENDCHAR
STARTCHAR asciitilde
ENCODING 126
SWIDTH 606 0
DWIDTH 20 0
BBX 16 4 2 6
BITMAP
1e03
7f87
e1fe
c078
ENDCHAR
STARTCHAR nobreakspace
ENCODING 160
SWIDTH 278 0
DWIDTH 9 0
BBX 1 1 1 0
BITMAP
00
ENDCHAR
STARTCHAR Aogonek
ENCODING 161
SWIDTH 722 0
DWIDTH 23 0
BBX 23 30 0 -5
BITMAP
001000
003800
003800
007800
007c00
007c00
00dc00
00de00
019e00
018e00
018f00
030700
030780
030780
060380
07ffc0
07ffc0
0c01c0
0c01e0
0c01e0
1800f0
1800f0
3800f8
7c01fc
fe03fe
001800
003000
007000
007e00
003c00
ENDCHAR
STARTCHAR breve
ENCODING 162
SWIDTH 333 0
DWIDTH 11 0
BBX 9 4 1 17
BITMAP
8080
c180
7f00
1c00
ENDCHAR
STARTCHAR Lstroke
ENCODING 163
SWIDTH 667 0
DWIDTH 22 0
BBX 20 25 1 0
BITMAP
ffe000
3f8000
0e0000
0e0000
0e0000
0e0000
0e0000
0e0000
0e6000
0ee000
0fc000
0f8000
0f0000
1e0000
3e0000
7e0000
6e0030
0e0030
0e0030
0e0070
0e0070
0e0060
0e00e0
1f07e0
ffffe0
ENDCHAR
STARTCHAR currency
ENCODING 164
SWIDTH 606 0
DWIDTH 19 0
BBX 16 17 1 3
BITMAP
43c2
eff7
7ffe
3c3c
700e
700e
e007
e007
e007
e007
e007
700e
700e
3c3c
7ffe
eff7
03c0
ENDCHAR
STARTCHAR Lcaron
ENCODING 165
SWIDTH 667 0
DWIDTH 22 0
BBX 20 28 1 0
BITMAP
000300
000780
000780
ffe380
3f8180
0e0100
0e0300
0e0600
0e0c00
0e0000
0e0000
0e0000
0e0000
0e0000
0e0000
0e0000
0e0000
0e0000
0e0000
0e0010
0e0010
0e0010
0e0030
0e0030
0e0070
0e01f0
3fffe0
ffffe0
ENDCHAR
STARTCHAR Sacute
ENCODING 166
SWIDTH 630 0
DWIDTH 20 0
BBX 17 32 2 0
BITMAP
000600
000e00
001c00
003800
006000
00c000
000000
0ff100
3ffb00
701f00
600700
e00700
e00300
e00100
f00100
f00000
7e0000
7fe000
1ffc00
07fe00
007f00
000f80
800780
800380
c00380
c00380
c00380
e00780
f00700
f80e00
dffc00
87f000
ENDCHAR
STARTCHAR section
ENCODING 167
SWIDTH 500 0
DWIDTH 17 0
BBX 12 30 2 -5
BITMAP
0f00
39c0
30c0
71c0
71c0
7080
3800
3c00
1e00
0f00
3f80
63c0
c1e0
c0f0
c070
e030
f030
7830
3c60
1fc0
0f00
0780
03c0
01c0
10e0
38e0
38e0
30c0
39c0
0f00
ENDCHAR
STARTCHAR diaeresis
ENCODING 168
SWIDTH 333 0
DWIDTH 11 0
BBX 9 3 1 19
BITMAP
6300
f780
6300
ENDCHAR
STARTCHAR Scaron
ENCODING 169
SWIDTH 630 0
DWIDTH 20 0
BBX 17 31 2 0
BITMAP
0c0c00
061800
03f000
01e000
00c000
000000
0ff100
3ffb00
701f00
600700
e00700
e00300
e00100
f00100
f00000
7e0000
7fe000
1ffc00
07fe00
007f00
000f80
800780
800380
c00380
c00380
c00380
e00780
f00700
f80e00
dffc00
87f000
ENDCHAR
STARTCHAR Scedilla
ENCODING 170
SWIDTH 630 0
DWIDTH 20 0
BBX 17 32 2 -7
BITMAP
0ff100
3ffb00
701f00
600700
e00700
e00300
e00100
f00100
f00000
7e0000
7fe000
1ffc00
07fe00
007f00
000f80
800780
800380
c00380
c00380
c00380
e00780
f00700
f80e00
dffc00
87f000
004000
008000
01e000
003000
003000
023000
01e000
ENDCHAR
STARTCHAR Tcaron
ENCODING 171
SWIDTH 667 0
DWIDTH 21 0
BBX 19 31 1 0
BITMAP
060600
030c00
01f800
00f000
006000
000000
ffffe0
ffffe0
f0e3e0
e0e0e0
c0e060
c0e060
80e020
80e020
80e020
00e000
00e000
00e000
00e000
00e000
00e000
00e000
00e000
00e000
00e000
00e000
00e000
00e000
00e000
03f800
0ffe00
ENDCHAR
STARTCHAR Zacute
ENCODING 172
SWIDTH 611 0
DWIDTH 19 0
BBX 17 32 1 0
BITMAP
000600
000e00
001c00
003800
006000
00c000
000000
7fff80
7fff80
780f00
700f00
601e00
603e00
603c00
407c00
407800
00f000
00f000
01e000
03e000
03c000
078000
078080
0f0080
1f0080
1e0180
3e0180
3c0180
780380
780780
ffff80
ffff80
ENDCHAR
STARTCHAR hyphen
ENCODING 173
SWIDTH 333 0
DWIDTH 11 0
BBX 8 3 1 7
BITMAP
ff
ff
ff
ENDCHAR
STARTCHAR Zcaron
ENCODING 174
SWIDTH 611 0
DWIDTH 19 0
BBX 17 31 1 0
BITMAP
0c0c00
061800
03f000
01e000
00c000
000000
7fff80
7fff80
780f00
700f00
601e00
603e00
603c00
407c00
407800
00f000
00f000
01e000
03e000
03c000
078000
078080
0f0080
1f0080
1e0180
3e0180
3c0180
780380
780780
ffff80
ffff80
ENDCHAR
STARTCHAR Zabovedot
ENCODING 175
SWIDTH 611 0
DWIDTH 19 0
BBX 17 29 1 0
BITMAP
00c000
01e000
00c000
000000
7fff80
7fff80
780f00
700f00
601e00
603e00
603c00
407c00
407800
00f000
00f000
01e000
03e000
03c000
078000
078080
0f0080
1f0080
1e0180
3e0180
3c0180
780380
780780
ffff80
ffff80
ENDCHAR
STARTCHAR degree
ENCODING 176
SWIDTH 400 0
DWIDTH 13 0
BBX 9 9 2 14
BITMAP
3e00
7700
c180
c180
8080
c180
c180
7700
3e00
ENDCHAR
STARTCHAR aogonek
ENCODING 177
SWIDTH 556 0
DWIDTH 17 0
BBX 16 21 1 -5
BITMAP
0fc0
3ff0
7878
7038
6038
0038
01f8
0ff8
3c38
7038
e038
e038
e078
f1fd
7f9f
3e0e
0180
0300
0700
07e0
03c0
ENDCHAR
STARTCHAR ogonek
ENCODING 178
SWIDTH 333 0
DWIDTH 11 0
BBX 6 5 2 -5
BITMAP
30
60
e0
fc
78
ENDCHAR
STARTCHAR lstroke
ENCODING 179
SWIDTH 315 0
DWIDTH 11 0
BBX 9 25 1 0
BITMAP
7c00
7c00
1c00
1c00
1c00
1c00
1c00
1c00
1d80
1f80
1e00
3c00
fc00
dc00
1c00
1c00
1c00
1c00
1c00
1c00
1c00
1c00
1c00
1c00
ff80
ENDCHAR
STARTCHAR acute
ENCODING 180
SWIDTH 333 0
DWIDTH 11 0
BBX 7 6 2 19
BITMAP
06
0e
1c
38
60
c0
ENDCHAR
STARTCHAR lcaron
ENCODING 181
SWIDTH 420 0
DWIDTH 14 0
BBX 12 28 1 0
BITMAP
0060
00f0
00f0
0c70
1c30
fc20
1c60
1cc0
1d80
1c00
1c00
1c00
1c00
1c00
1c00
1c00
1c00
1c00
1c00
1c00
1c00
1c00
1c00
1c00
1c00
1c00
1c00
ff80
ENDCHAR
STARTCHAR sacute
ENCODING 182
SWIDTH 463 0
DWIDTH 15 0
BBX 11 23 2 0
BITMAP
0060
00e0
01c0
0380
0600
0c00
0000
1ec0
7fc0
e1c0
c0c0
c0c0
f040
fe00
7f80
3fc0
07e0
80e0
c060
c060
e0e0
ffc0
9f00
ENDCHAR
STARTCHAR caron
ENCODING 183
SWIDTH 333 0
DWIDTH 11 0
BBX 10 5 0 17
BITMAP
c0c0
6180
3f00
1e00
0c00
ENDCHAR
STARTCHAR cedilla
ENCODING 184
SWIDTH 333 0
DWIDTH 11 0
BBX 6 7 1 -7
BITMAP
10
20
78
0c
0c
8c
78
ENDCHAR
STARTCHAR scaron
ENCODING 185
SWIDTH 463 0
DWIDTH 15 0
BBX 11 22 2 0
BITMAP
c0c0
6180
3f00
1e00
0c00
0000
1ec0
7fc0
e1c0
c0c0
c0c0
f040
fe00
7f80
3fc0
07e0
80e0
c060
c060
e0e0
ffc0
9f00
ENDCHAR
STARTCHAR scedilla
ENCODING 186
SWIDTH 463 0
DWIDTH 15 0
BBX 11 23 2 -7
BITMAP
1ec0
7fc0
e1c0
c0c0
c0c0
f040
fe00
7f80
3fc0
07e0
80e0
c060
c060
e0e0
ffc0
9f00
0200
0400
0f00
0180
0180
1180
0f00
ENDCHAR
STARTCHAR tcaron
ENCODING 187
SWIDTH 389 0
DWIDTH 13 0
BBX 12 26 0 0
BITMAP
0060
00f0
00f0
0470
0430
0c20
0c60
1cc0
1d80
3c00
ffe0
1c00
1c00
1c00
1c00
1c00
1c00
1c00
1c00
1c10
1c10
1c30
1c30
1e60
0fe0
07c0
ENDCHAR
STARTCHAR zacute
ENCODING 188
SWIDTH 481 0
DWIDTH 15 0
BBX 13 23 1 0
BITMAP
0018
0038
0070
00e0
0180
0300
0000
7ff8
7878
60f0
60e0
41e0
43c0
0380
0780
0f00
0e00
1e08
3c08
3818
7838
f0f8
fff8
ENDCHAR
STARTCHAR doubleacute
ENCODING 189
SWIDTH 333 0
DWIDTH 11 0
BBX 7 6 2 17
BITMAP
66
66
cc
cc
88
88
ENDCHAR
STARTCHAR zcaron
ENCODING 190
SWIDTH 481 0
DWIDTH 15 0
BBX 13 22 1 0
BITMAP
3030
1860
0fc0
0780
0300
0000
7ff8
7878
60f0
60e0
41e0
43c0
0380
0780
0f00
0e00
1e08
3c08
3818
7838
f0f8
fff8
ENDCHAR
STARTCHAR zabovedot
ENCODING 191
SWIDTH 481 0
DWIDTH 15 0
BBX 13 20 1 0
BITMAP
0300
0780
0300
0000
7ff8
7878
60f0
60e0
41e0
43c0
0380
0780
0f00
0e00
1e08
3c08
3818
7838
f0f8
fff8
ENDCHAR
STARTCHAR Racute
ENCODING 192
SWIDTH 722 0
DWIDTH 23 0
BBX 21 32 1 0
BITMAP
000600
000e00
001c00
003800
006000
00c000
000000
fffe00
3fff80
0e07c0
0e01c0
0e01e0
0e00e0
0e00e0
0e01e0
0e01e0
0e01c0
0e03c0
0e0f00
0ffc00
0ffe00
0e0f00
0e0700
0e0780
0e0380
0e0380
0e0388
0e0388
0e0388
0e03d8
3f81f0
ffe1e0
ENDCHAR
STARTCHAR Aacute
ENCODING 193
SWIDTH 722 0
DWIDTH 23 0
BBX 23 32 0 0
BITMAP
000180
000380
000700
000e00
001800
003000
000000
001000
003800
003800
007800
007c00
007c00
00dc00
00de00
019e00
018e00
018f00
030700
030780
030780
060380
07ffc0
07ffc0
0c01c0
0c01e0
0c01e0
1800f0
1800f0
3800f8
7c01fc
fe03fe
ENDCHAR
STARTCHAR Acircumflex
ENCODING 194
SWIDTH 722 0
DWIDTH 23 0
BBX 23 31 0 0
BITMAP
001800
003c00
007e00
00c300
018180
000000
001000
003800
003800
007800
007c00
007c00
00dc00
00de00
019e00
018e00
018f00
030700
030780
030780
060380
07ffc0
07ffc0
0c01c0
0c01e0
0c01e0
1800f0
1800f0
3800f8
7c01fc
fe03fe
ENDCHAR
STARTCHAR Abreve
ENCODING 195
SWIDTH 722 0
DWIDTH 23 0
BBX 23 30 0 0
BITMAP
010100
018300
00fe00
003800
000000
001000
003800
003800
007800
007c00
007c00
00dc00
00de00
019e00
018e00
018f00
030700
030780
030780
060380
07ffc0
07ffc0
0c01c0
0c01e0
0c01e0
1800f0
1800f0
3800f8
7c01fc
fe03fe
ENDCHAR
STARTCHAR Adiaeresis
ENCODING 196
SWIDTH 722 0
DWIDTH 23 0
BBX 23 30 0 0
BITMAP
018600
03cf00
018600
000000
000000
001000
003800
003800
007800
007c00
007c00
00dc00
00de00
019e00
018e00
018f00
030700
030780
030780
060380
07ffc0
07ffc0
0c01c0
0c01e0
0c01e0
1800f0
1800f0
3800f8
7c01fc
fe03fe
ENDCHAR
STARTCHAR Lacute
ENCODING 197
SWIDTH 667 0
DWIDTH 22 0
BBX 20 32 1 0
BITMAP
003000
007000
00e000
01c000
030000
060000
000000
ffe000
3f8000
0e0000
0e0000
0e0000
0e0000
0e0000
0e0000
0e0000
0e0000
0e0000
0e0000
0e0000
0e0000
0e0000
0e0000
0e0010
0e0010
0e0010
0e0030
0e0030
0e0070
0e01f0
3fffe0
ffffe0
ENDCHAR
STARTCHAR Cacute
ENCODING 198
SWIDTH 722 0
DWIDTH 22 0
BBX 20 32 1 0
BITMAP
0000c0
0001c0
000380
000700
000c00
001800
000000
01fc60
07ff60
0e03e0
1c01e0
3c00e0
3800e0
780060
780060
f00020
f00020
f00000
f00000
f00000
f00000
f00000
f00000
f00030
780030
780030
780060
3c0060
1c00c0
0f0380
07ff00
01fc00
ENDCHAR
STARTCHAR Ccedilla
ENCODING 199
SWIDTH 722 0
DWIDTH 22 0
BBX 20 32 1 -7
BITMAP
00f860
03ff60
0f07e0
1c01e0
3c00e0
3800e0
780060
780060
f00060
f00020
f00000
f00000
f00000
f00000
f00000
f00000
f00030
780030
780020
780060
3c0060
1c00c0
0e0180
07cf00
01fe00
002000
004000
00f000
001800
001800
011800
00f000
ENDCHAR
STARTCHAR Ccaron
ENCODING 200
SWIDTH 722 0
DWIDTH 22 0
BBX 20 31 1 0
BITMAP
018180
00c300
007e00
003c00
001800
000000
01fc60
07ff60
0e03e0
1c01e0
3c00e0
3800e0
780060
780060
f00020
f00020
f00000
f00000
f00000
f00000
f00000
f00000
f00030
780030
780030
780060
3c0060
1c00c0
0f0380
07ff00
01fc00
ENDCHAR
STARTCHAR Eacute
ENCODING 201
SWIDTH 722 0
DWIDTH 24 0
BBX 20 32 1 0
BITMAP
000180
000380
000700
000e00
001800
003000
000000
fffff0
3ffff0
0e01f0
0e0070
0e0070
0e0030
0e0430
0e0410
0e0410
0e0c00
0e3c00
0ffc00
0ffc00
0e3c00
0e0c00
0e0c00
0e0410
0e0410
0e0010
0e0030
0e0030
0e0070
0e01f0
3ffff0
fffff0
ENDCHAR
STARTCHAR Eogonek
ENCODING 202
SWIDTH 722 0
DWIDTH 24 0
BBX 20 30 1 -5
BITMAP
fffff0
3ffff0
0e01f0
0e0070
0e0070
0e0030
0e0430
0e0410
0e0410
0e0c00
0e3c00
0ffc00
0ffc00
0e3c00
0e0c00
0e0c00
0e0410
0e0410
0e0010
0e0030
0e0030
0e0070
0e01f0
3ffff0
fffff0
006000
00c000
01c000
01f800
00f000
ENDCHAR
STARTCHAR Ediaeresis
ENCODING 203
SWIDTH 722 0
DWIDTH 24 0
BBX 20 30 1 0
BITMAP
00c600
01ef00
00c600
000000
000000
fffff0
3ffff0
0e01f0
0e0070
0e0070
0e0030
0e0430
0e0410
0e0410
0e0c00
0e3c00
0ffc00
0ffc00
0e3c00
0e0c00
0e0c00
0e0410
0e0410
0e0010
0e0030
0e0030
0e0070
0e01f0
3ffff0
fffff0
ENDCHAR
STARTCHAR Ecaron
ENCODING 204
SWIDTH 722 0
DWIDTH 24 0
BBX 20 31 1 0
BITMAP
060600
030c00
01f800
00f000
006000
000000
fffff0
3ffff0
0e01f0
0e0070
0e0070
0e0030
0e0430
0e0410
0e0410
0e0c00
0e3c00
0ffc00
0ffc00
0e3c00
0e0c00
0e0c00
0e0410
0e0410
0e0010
0e0030
0e0030
0e0070
0e01f0
3ffff0
fffff0
ENDCHAR
STARTCHAR Iacute
ENCODING 205
SWIDTH 407 0
DWIDTH 13 0
BBX 11 32 1 0
BITMAP
00c0
01c0
0380
0700
0c00
1800
0000
ffe0
3f80
0e00
0e00
0e00
0e00
0e00
0e00
0e00
0e00
0e00
0e00
0e00
0e00
0e00
0e00
0e00
0e00
0e00
0e00
0e00
0e00
0e00
3f80
ffe0
ENDCHAR
STARTCHAR Icircumflex
ENCODING 206
SWIDTH 407 0
DWIDTH 13 0
BBX 11 31 1 0
BITMAP
0600
0f00
1f80
30c0
6060
0000
ffe0
3f80
0e00
0e00
0e00
0e00
0e00
0e00
0e00
0e00
0e00
0e00
0e00
0e00
0e00
0e00
0e00
0e00
0e00
0e00
0e00
0e00
0e00
3f80
ffe0
ENDCHAR
STARTCHAR Dcaron
ENCODING 207
SWIDTH 778 0
DWIDTH 25 0
BBX 22 31 1 0
BITMAP
060600
030c00
01f800
00f000
006000
000000
fffe00
3fffc0
0e03e0
0e00f0
0e0070
0e0078
0e0078
0e003c
0e003c
0e003c
0e003c
0e003c
0e003c
0e003c
0e003c
0e003c
0e003c
0e003c
0e0038
0e0078
0e0070
0e00e0
0e03e0
3fffc0
fffe00
ENDCHAR
STARTCHAR Dstroke
ENCODING 208
SWIDTH 778 0
DWIDTH 24 0
BBX 22 25 1 0
BITMAP
fffc00
ffff80
1e07c0
0e01e0
0e00f0
0e0070
0e0078
0e0078
0e0038
0e003c
0e003c
0e003c
7fe03c
7fe03c
0e003c
0e003c
0e003c
0e0038
0e0078
0e0078
0e0070
0e00e0
0e01c0
ffff80
fffe00
ENDCHAR
STARTCHAR Nacute
ENCODING 209
SWIDTH 815 0
DWIDTH 28 0
BBX 26 32 1 0
BITMAP
00006000
0000e000
0001c000
00038000
00060000
000c0000
00000000
ff00ffc0
1f003f00
0f800c00
0fc00c00
0fc00c00
0de00c00
0df00c00
0cf80c00
0c780c00
0c7c0c00
0c3e0c00
0c1e0c00
0c1f0c00
0c0f8c00
0c078c00
0c07cc00
0c03cc00
0c01ec00
0c00ec00
0c00fc00
0c007c00
0c003c00
0c003c00
3f001c00
ffc00c00
ENDCHAR
STARTCHAR Ncaron
ENCODING 210
SWIDTH 815 0
DWIDTH 28 0
BBX 26 31 1 0
BITMAP
00c0c000
00618000
003f0000
001e0000
000c0000
00000000
ff00ffc0
1f003f00
0f800c00
0fc00c00
0fc00c00
0de00c00
0df00c00
0cf80c00
0c780c00
0c7c0c00
0c3e0c00
0c1e0c00
0c1f0c00
0c0f8c00
0c078c00
0c07cc00
0c03cc00
0c01ec00
0c00ec00
0c00fc00
0c007c00
0c003c00
0c003c00
3f001c00
ffc00c00
ENDCHAR
STARTCHAR Oacute
ENCODING 211
SWIDTH 778 0
DWIDTH 24 0
BBX 22 32 1 0
BITMAP
000300
000700
000e00
001c00
003000
006000
000000
01fe00
07ff80
0f03c0
1c00e0
3c00f0
380070
780078
780078
f0003c
f0003c
f0003c
f0003c
f0003c
f0003c
f0003c
f0003c
f00038
780078
780078
380070
3c00f0
1c00e0
0f03c0
07ff80
01fe00
ENDCHAR
STARTCHAR Ocircumflex
ENCODING 212
SWIDTH 778 0
DWIDTH 24 0
BBX 22 31 1 0
BITMAP
003000
007800
00fc00
018600
030300
000000
01fe00
07ff80
0f03c0
1c00e0
3c00f0
380070
780078
780078
f0003c
f0003c
f0003c
f0003c
f0003c
f0003c
f0003c
f0003c
f00038
780078
780078
380070
3c00f0
1c00e0
0f03c0
07ff80
01fe00
ENDCHAR
STARTCHAR Odoubleacute
ENCODING 213
SWIDTH 778 0
DWIDTH 24 0
BBX 22 32 1 0
BITMAP
006600
006600
00cc00
00cc00
008800
008800
000000
01fe00
07ff80
0f03c0
1c00e0
3c00f0
380070
780078
700038
f0003c
f0003c
e0001c
e0001c
e0001c
e0001c
e0001c
f0003c
f00038
700038
780078
380070
3c00f0
1c00e0
0f03c0
07ff80
01fe00
ENDCHAR
STARTCHAR Odiaeresis
ENCODING 214
SWIDTH 778 0
DWIDTH 24 0
BBX 22 30 1 0
BITMAP
00c600
01ef00
00c600
000000
000000
01fe00
07ff80
0f03c0
1c00e0
3c00f0
380070
780078
780078
f0003c
f0003c
f0003c
f0003c
f0003c
f0003c
f0003c
f0003c
f00038
780078
780078
380070
3c00f0
1c00e0
0f03c0
07ff80
01fe00
ENDCHAR
STARTCHAR multiply
ENCODING 215
SWIDTH 606 0
DWIDTH 20 0
BBX 17 15 2 1
BITMAP
e00380
700700
380e00
1c1c00
0e3800
077000
03e000
01c000
03e000
077000
0e3800
1c1c00
380e00
700700
e00380
ENDCHAR
STARTCHAR Rcaron
ENCODING 216
SWIDTH 722 0
DWIDTH 23 0
BBX 21 31 1 0
BITMAP
0c0c00
061800
03f000
01e000
00c000
000000
fffe00
3fff80
0e07c0
0e01c0
0e01e0
0e00e0
0e00e0
0e01e0
0e01e0
0e01c0
0e03c0
0e0f00
0ffc00
0ffe00
0e0f00
0e0700
0e0780
0e0380
0e0380
0e0388
0e0388
0e0388
0e03d8
3f81f0
ffe1e0
ENDCHAR
STARTCHAR Uring
ENCODING 217
SWIDTH 815 0
DWIDTH 26 0
BBX 26 32 0 0
BITMAP
001e0000
00330000
00210000
00210000
00330000
001e0000
00000000
ffe0ffc0
3f803f00
0e000c00
0e000c00
0e000c00
0e000c00
0e000c00
0e000c00
0e000c00
0e000c00
0e000c00
0e000c00
0e000c00
0e000c00
0e000c00
0e000c00
0e000c00
0e000c00
0e000c00
0f001800
07001800
07803000
03e0f000
01ffc000
007f0000
ENDCHAR
STARTCHAR Uacute
ENCODING 218
SWIDTH 815 0
DWIDTH 26 0
BBX 26 32 0 0
BITMAP
00003000
00007000
0000e000
0001c000
00030000
00060000
00000000
ffe0ffc0
3f803f00
0e000c00
0e000c00
0e000c00
0e000c00
0e000c00
0e000c00
0e000c00
0e000c00
0e000c00
0e000c00
0e000c00
0e000c00
0e000c00
0e000c00
0e000c00
0e000c00
0e000c00
0f001800
07001800
07803000
03e0f000
01ffc000
007f0000
ENDCHAR
STARTCHAR Udoubleacute
ENCODING 219
SWIDTH 815 0
DWIDTH 26 0
BBX 26 32 0 0
BITMAP
00198000
00198000
00330000
00330000
00220000
00220000
00000000
ffe0ffc0
3f803f00
0e000c00
0e000c00
0e000c00
0e000c00
0e000c00
0e000c00
0e000c00
0e000c00
0e000c00
0e000c00
0e000c00
0e000c00
0e000c00
0e000c00
0e000c00
0e000c00
0e000c00
0f001800
07001800
07803000
03e0f000
01ffc000
007f0000
ENDCHAR
STARTCHAR Udiaeresis
ENCODING 220
SWIDTH 815 0
DWIDTH 26 0
BBX 26 30 0 0
BITMAP
0030c000
0079e000
0030c000
00000000
00000000
ffe0ffc0
3f803f00
0e000c00
0e000c00
0e000c00
0e000c00
0e000c00
0e000c00
0e000c00
0e000c00
0e000c00
0e000c00
0e000c00
0e000c00
0e000c00
0e000c00
0e000c00
0e000c00
0e000c00
0f001800
07001800
07803000
03e0f000
01ffc000
007f0000
ENDCHAR
STARTCHAR Yacute
ENCODING 221
SWIDTH 704 0
DWIDTH 23 0
BBX 23 32 0 0
BITMAP
000180
000380
000700
000e00
001800
003000
000000
ff83fe
7e00f8
3e0070
1e0060
0f00e0
0f00c0
078180
07c180
03c300
03e300
01e600
00f600
00fc00
007c00
007800
003800
003800
003800
003800
003800
003800
003800
003800
00fe00
03ff80
ENDCHAR
STARTCHAR Tcedilla
ENCODING 222
SWIDTH 667 0
DWIDTH 21 0
BBX 19 32 1 -7
BITMAP
ffffe0
ffffe0
f0e3e0
e0e0e0
c0e060
c0e060
80e020
80e020
80e020
00e000
00e000
00e000
00e000
00e000
00e000
00e000
00e000
00e000
00e000
00e000
00e000
00e000
00e000
03f800
0ffe00
002000
004000
00f000
001800
001800
011800
00f000
ENDCHAR
STARTCHAR ssharp
ENCODING 223
SWIDTH 574 0
DWIDTH 19 0
BBX 17 26 0 -1
BITMAP
03f800
079c00
0e0e00
0e0f00
1c0700
1c0700
1c0700
1c0700
1c0e00
1c0e00
1cf800
1cf800
1c0e00
1c0700
1c0700
1c0780
1c0380
1c0380
1c0380
1c0380
1c0380
1ce780
1ce700
3ce700
fcfe00
003800
ENDCHAR
STARTCHAR racute
ENCODING 224
SWIDTH 444 0
DWIDTH 15 0
BBX 14 23 0 0
BITMAP
0018
0038
0070
00e0
0180
0300
0000
1c78
fdfc
1f3c
1e3c
1e18
1c00
1c00
1c00
1c00
1c00
1c00
1c00
1c00
1c00
1c00
ff80
ENDCHAR
STARTCHAR aacute
ENCODING 225
SWIDTH 556 0
DWIDTH 17 0
BBX 16 23 1 0
BITMAP
0030
0070
00e0
01c0
0300
0600
0000
07c0
1ff0
7878
7038
7038
7038
01f8
0ff8
3c38
7038
e038
e038
e078
f0fd
7f9f
3f0e
ENDCHAR
STARTCHAR acircumflex
ENCODING 226
SWIDTH 556 0
DWIDTH 17 0
BBX 16 22 1 0
BITMAP
0300
0780
0fc0
1860
3030
0000
07c0
1ff0
7878
7038
7038
7038
01f8
0ff8
3c38
7038
e038
e038
e078
f0fd
7f9f
3e0e
ENDCHAR
STARTCHAR abreve
ENCODING 227
SWIDTH 556 0
DWIDTH 17 0
BBX 16 21 1 0
BITMAP
2020
3060
1fc0
0700
0000
0fc0
3ff0
7878
7038
6038
0038
01f8
0ff8
3c38
7038
e038
e038
e078
f1fd
7f9f
3e0e
ENDCHAR
STARTCHAR adiaeresis
ENCODING 228
SWIDTH 556 0
DWIDTH 17 0
BBX 16 21 1 0
BITMAP
0c60
1ef0
0c60
0000
0000
07c0
1ff0
7878
7038
7038
7038
01f8
0ff8
3c38
7038
e038
e038
e078
f0fd
7f9f
3e0e
ENDCHAR
STARTCHAR lacute
ENCODING 229
SWIDTH 315 0
DWIDTH 11 0
BBX 9 32 1 0
BITMAP
0180
0380
0700
0e00
1800
3000
0000
0c00
1c00
fc00
1c00
1c00
1c00
1c00
1c00
1c00
1c00
1c00
1c00
1c00
1c00
1c00
1c00
1c00
1c00
1c00
1c00
1c00
1c00
1c00
1c00
ff80
ENDCHAR
STARTCHAR cacute
ENCODING 230
SWIDTH 444 0
DWIDTH 14 0
BBX 13 23 1 0
BITMAP
0018
0038
0070
00e0
0180
0300
0000
0780
1fe0
3870
70f0
70f0
e060
e000
e000
e000
e000
e000
7010
7030
3860
3fc0
0f80
ENDCHAR
STARTCHAR ccedilla
ENCODING 231
SWIDTH 444 0
DWIDTH 14 0
BBX 12 23 1 -7
BITMAP
0780
1fe0
3870
70f0
70f0
e060
e000
e000
e000
e000
f000
f010
7830
7c60
3fc0
0f00
0200
0400
0f00
0180
0180
1180
0f00
ENDCHAR
STARTCHAR ccaron
ENCODING 232
SWIDTH 444 0
DWIDTH 14 0
BBX 12 22 1 0
BITMAP
3030
1860
0fc0
0780
0300
0000
0780
1fe0
3870
70f0
70f0
e060
e000
e000
e000
e000
e000
7010
7030
3860
3fc0
0f80
ENDCHAR
STARTCHAR eacute
ENCODING 233
SWIDTH 500 0
DWIDTH 16 0
BBX 14 23 1 0
BITMAP
0018
0038
0070
00e0
0180
0300
0000
07c0
1ff0
3878
7038
601c
e01c
e01c
fffc
e000
e000
f000
f004
780c
3c38
1ff0
07c0
ENDCHAR
STARTCHAR eogonek
ENCODING 234
SWIDTH 500 0
DWIDTH 16 0
BBX 14 21 1 -5
BITMAP
07c0
1ff0
3878
7038
601c
e01c
e01c
fffc
e000
e000
e000
f004
700c
7838
3ff0
0fc0
0300
0600
0e00
0fc0
0780
ENDCHAR
STARTCHAR ediaeresis
ENCODING 235
SWIDTH 500 0
DWIDTH 16 0
BBX 14 21 1 0
BITMAP
0c60
1ef0
0c60
0000
0000
07c0
1ff0
3838
7018
701c
f01c
f01c
fffc
e000
e000
f000
f004
780c
3c18
1ff0
07c0
ENDCHAR
STARTCHAR ecaron
ENCODING 236
SWIDTH 500 0
DWIDTH 16 0
BBX 14 22 1 0
BITMAP
1818
0c30
07e0
03c0
0180
0000
07c0
1ff0
3878
7038
601c
e01c
e01c
fffc
e000
e000
e000
f004
700c
7838
3ff0
0fc0
ENDCHAR
STARTCHAR iacute
ENCODING 237
SWIDTH 315 0
DWIDTH 11 0
BBX 9 23 1 0
BITMAP
0180
0380
0700
0e00
1800
3000
0000
fc00
1c00
1c00
1c00
1c00
1c00
1c00
1c00
1c00
1c00
1c00
1c00
1c00
1c00
1c00
ff80
ENDCHAR
STARTCHAR icircumflex
ENCODING 238
SWIDTH 315 0
DWIDTH 11 0
BBX 10 22 0 0
BITMAP
0c00
1e00
3f00
6180
c0c0
0000
7e00
0e00
0e00
0e00
0e00
0e00
0e00
0e00
0e00
0e00
0e00
0e00
0e00
0e00
0e00
7fc0
ENDCHAR
STARTCHAR dcaron
ENCODING 239
SWIDTH 660 0
DWIDTH 22 0
BBX 20 28 1 0
BITMAP
000060
0000f0
0000f0
000c70
007c30
001c20
001c60
001cc0
001d80
001c00
001c00
001c00
079c00
1fdc00
387c00
703c00
703c00
e01c00
e01c00
e01c00
e01c00
e01c00
e01c00
f03c00
703c00
787c00
1fdc00
079f00
ENDCHAR
STARTCHAR dstroke
ENCODING 240
SWIDTH 570 0
DWIDTH 19 0
BBX 17 25 1 0
BITMAP
000c00
007c00
001c00
001c00
001c00
00ff80
00ff80
001c00
001c00
079c00
1fdc00
387c00
703c00
703c00
e01c00
e01c00
e01c00
e01c00
e01c00
e01c00
f03c00
703c00
787c00
1fdc00
079f00
ENDCHAR
STARTCHAR nacute
ENCODING 241
SWIDTH 611 0
DWIDTH 19 0
BBX 19 23 0 0
BITMAP
000c00
001c00
003800
007000
00c000
018000
000000
1c7800
fdfe00
1f8e00
1e0700
1e0700
1c0700
1c0700
1c0700
1c0700
1c0700
1c0700
1c0700
1c0700
1c0700
1c0700
ff1fe0
ENDCHAR
STARTCHAR ncaron
ENCODING 242
SWIDTH 611 0
DWIDTH 19 0
BBX 19 22 0 0
BITMAP
181800
0c3000
07e000
03c000
018000
000000
1c7800
fdfe00
1f8e00
1e0700
1e0700
1c0700
1c0700
1c0700
1c0700
1c0700
1c0700
1c0700
1c0700
1c0700
1c0700
ff1fe0
ENDCHAR
STARTCHAR oacute
ENCODING 243
SWIDTH 500 0
DWIDTH 16 0
BBX 14 23 1 0
BITMAP
0018
0038
0070
00e0
0180
0300
0000
0780
1fe0
3870
7038
7038
e01c
e01c
e01c
e01c
e01c
e01c
f03c
7038
7878
1fe0
0780
ENDCHAR
STARTCHAR ocircumflex
ENCODING 244
SWIDTH 500 0
DWIDTH 16 0
BBX 14 22 1 0
BITMAP
0300
0780
0fc0
1860
3030
0000
0780
1fe0
3870
7038
7038
e01c
e01c
e01c
e01c
e01c
e01c
7038
7038
3870
1fe0
0780
ENDCHAR
STARTCHAR odoubleacute
ENCODING 245
SWIDTH 500 0
DWIDTH 16 0
BBX 14 23 1 0
BITMAP
0660
0660
0cc0
0cc0
0880
0880
0000
0780
1fe0
3870
7038
7038
e01c
e01c
e01c
e01c
e01c
e01c
7038
7038
3870
1fe0
0780
ENDCHAR
STARTCHAR odiaeresis
ENCODING 246
SWIDTH 500 0
DWIDTH 16 0
BBX 14 21 1 0
BITMAP
18c0
3de0
18c0
0000
0000
0780
1fe0
3870
7038
7038
e01c
e01c
e01c
e01c
e01c
e01c
7038
7038
3870
1fe0
0780
ENDCHAR
STARTCHAR division
ENCODING 247
SWIDTH 606 0
DWIDTH 20 0
BBX 16 16 2 0
BITMAP
0180
03c0
03c0
0180
0000
0000
0000
ffff
ffff
0000
0000
0000
0180
03c0
03c0
0180
ENDCHAR
STARTCHAR rcaron
ENCODING 248
SWIDTH 444 0
DWIDTH 15 0
BBX 14 22 0 0
BITMAP
3030
1860
0fc0
0780
0300
0000
1c78
fdfc
1f3c
1e3c
1e18
1c00
1c00
1c00
1c00
1c00
1c00
1c00
1c00
1c00
1c00
ff80
ENDCHAR
STARTCHAR uring
ENCODING 249
SWIDTH 611 0
DWIDTH 20 0
BBX 18 23 0 0
BITMAP
03c000
066000
042000
042000
066000
03c000
000000
1c0700
fc3f00
1c0700
1c0700
1c0700
1c0700
1c0700
1c0700
1c0700
1c0700
1c0700
1c0f00
1c0f00
1e3f00
0ff7c0
07c700
ENDCHAR
STARTCHAR uacute
ENCODING 250
SWIDTH 611 0
DWIDTH 20 0
BBX 18 23 0 0
BITMAP
000c00
001c00
003800
007000
00c000
018000
000000
1c0700
fc3f00
1c0700
1c0700
1c0700
1c0700
1c0700
1c0700
1c0700
1c0700
1c0700
1c0f00
1c0f00
0e3f00
0ff7c0
07c700
ENDCHAR
STARTCHAR udoubleacute
ENCODING 251
SWIDTH 611 0
DWIDTH 20 0
BBX 18 23 0 0
BITMAP
033000
033000
066000
066000
044000
044000
000000
1c0700
fc3f00
1c0700
1c0700
1c0700
1c0700
1c0700
1c0700
1c0700
1c0700
1c0700
1c0f00
1c0f00
1e3f00
0ff7c0
07c700
ENDCHAR
STARTCHAR udiaeresis
ENCODING 252
SWIDTH 611 0
DWIDTH 20 0
BBX 18 21 0 0
BITMAP
031800
07bc00
031800
000000
000000
1c0700
fc3f00
1c0700
1c0700
1c0700
1c0700
1c0700
1c0700
1c0700
1c0700
1c0700
1c0f00
1c0f00
0e3f00
0ff7c0
07c700
ENDCHAR
STARTCHAR yacute
ENCODING 253
SWIDTH 537 0
DWIDTH 19 0
BBX 17 30 1 -7
BITMAP
000c00
001c00
003800
007000
00c000
018000
000000
ff1f80
7c0700
3c0600
1c0600
1e0c00
0e0c00
0f0800
071800
071800
07b000
03b000
03e000
01e000
01e000
00c000
00c000
018000
018000
630000
e30000
e60000
fc0000
700000
ENDCHAR
STARTCHAR tcedilla
ENCODING 254
SWIDTH 389 0
DWIDTH 13 0
BBX 12 30 0 -7
BITMAP
0400
0400
0c00
0c00
1c00
1c00
3c00
ffe0
1c00
1c00
1c00
1c00
1c00
1c00
1c00
1c00
1c10
1c10
1c30
1c30
1e60
0fe0
07c0
0200
0400
0f00
0180
0180
1180
0f00
ENDCHAR
STARTCHAR abovedot
ENCODING 255
SWIDTH 333 0
DWIDTH 11 0
BBX 4 3 3 17
BITMAP
60
f0
60
ENDCHAR
ENDFONT
